<?xml version="1.0" encoding="UTF-8" standalone="no"?>
<!-- Created with Inkscape (http://www.inkscape.org/) -->

<svg
   width="535.35791mm"
   height="500.40247mm"
   viewBox="0 0 535.35791 500.40247"
   version="1.1"
   id="svg5"
   xml:space="preserve"
   xmlns="http://www.w3.org/2000/svg"
   xmlns:svg="http://www.w3.org/2000/svg"><defs
     id="defs2" /><g
     id="layer1"
     transform="translate(5159.1653,5943.4901)"><path
       style="fill:#000000;stroke-width:1"
       d="m -4810.5559,-5443.3498 c -1.0526,-0.093 -4.9902,-0.4434 -8.7495,-0.7658 -27.9383,-2.3874 -65.3795,-12.9258 -98.1669,-27.6282 -35.6925,-16.0046 -75.9288,-41.1401 -110.7439,-69.1807 -22.0939,-17.7935 -46.341,-42.7026 -66.5111,-68.3249 -38.9573,-49.488 -57.2361,-87.9244 -63.4603,-133.4392 -1.2898,-9.4347 -1.3068,-32.4355 -0.031,-42.481 2.978,-23.4488 10.7183,-44.2979 23.6163,-63.6153 19.1624,-28.6979 52.5869,-57.5973 87.833,-75.9428 25.8222,-13.4405 47.2092,-18.7795 75.1552,-18.7624 11.9647,0 18.4803,0.4945 30.8992,2.3052 62.248,9.075 147.2875,45.9318 196.6066,85.21 24.9106,19.8383 50.1174,47.9223 70.0177,78.0107 27.4608,41.523 43.9723,84.4939 49.2772,128.246 1.3332,10.9989 1.3441,36.7684 0.016,46.4853 -3.9639,29.0885 -12.0933,51.0987 -27.4701,74.377 -5.8428,8.8456 -10.7043,14.8543 -21.3699,26.4128 -13.501,14.6311 -22.4706,23.6504 -27.6251,27.7771 -22.7791,18.24 -49.8787,28.5677 -81.6228,31.1069 -6.4552,0.5163 -23.0752,0.6418 -27.6747,0.2093 z m 39.6503,-13.8389 c 27.7755,-4.4383 52.1172,-16.4697 72.2377,-35.7049 2.8617,-2.7346 5.7296,-5.7312 6.3745,-6.6583 0.6449,-0.9286 -1.5471,0.924 -4.8708,4.1128 -12.5088,12.0081 -30.1303,21.3188 -48.5827,25.6687 -12.2717,2.8928 -18.1858,3.4493 -37.1916,3.4911 -11.6717,0.031 -20.1716,-0.2108 -24.0627,-0.6728 -44.2684,-5.2568 -82.8351,-16.7828 -122.5024,-36.6133 -47.5642,-23.7775 -96.8042,-61.9953 -128.3173,-99.5916 -8.0798,-9.6408 -30.4714,-39.6471 -40.458,-54.2177 -21.1343,-30.8342 -35.4848,-63.8029 -41.4237,-95.1579 -2.4494,-12.9305 -3.0338,-19.4709 -3.0106,-33.6338 0.031,-15.1954 0.8108,-21.4025 3.9779,-31.4279 0.8992,-2.8462 1.5518,-5.2584 1.4511,-5.3607 -0.3085,-0.3069 -3.5904,9.1169 -4.984,14.3087 -3.6586,13.6327 -5.1701,25.323 -5.1701,40.0021 0,50.3872 18.4649,96.302 60.9133,151.4654 19.4321,25.2517 36.8629,43.7739 59.6762,63.4107 62.172,53.5155 135.7274,88.8391 200.9797,96.5143 13.4917,1.5874 13.2762,1.5781 31.4465,1.3797 13.3242,-0.1395 17.7424,-0.3922 23.517,-1.3146 z m 90.9893,-56.4517 c 6.1497,-3.4741 9.4533,-5.9994 10.2067,-7.8007 2.1951,-5.2569 4.4243,-33.082 3.4958,-43.6592 -0.6821,-7.762 -1.3642,-10.6238 -5.7111,-23.9278 -4.1825,-12.8034 -5.4646,-19.564 -6.2893,-33.1424 -2.5315,-41.7137 -11.7197,-73.0206 -29.2684,-99.7202 -27.6375,-42.0485 -87.5524,-82.7839 -154.4805,-105.0282 -28.0716,-9.3309 -59.763,-15.3396 -80.5997,-15.2853 -12.2995,0.031 -19.5716,2.1347 -22.5512,6.5187 -1.8463,2.7176 -1.8137,7.9434 0.077,12.9755 4.0492,10.7539 18.6524,26.6252 36.6258,39.8022 33.6757,24.6889 52.3761,41.002 96.1299,83.8551 31.8402,31.1829 52.8458,47.7301 73.4515,57.8593 l 8.317,4.0895 9.7633,9.9633 c 20.2274,20.6382 40.1402,43.8297 48.468,56.447 6.6614,10.0936 12.6251,24.1341 13.2715,31.2481 0.2217,2.4307 0.047,3.7298 -0.7146,5.3715 l -1.0061,2.1641 -4.8011,-9.8207 c -5.7157,-11.6918 -9.2502,-17.1796 -14.6481,-22.7372 -7.0164,-7.2257 -12.6887,-10.8268 -26.695,-16.9472 -2.0789,-0.9084 -4.767,-2.9872 -8.7619,-6.7791 -15.1194,-14.349 -60.6885,-53.3032 -76.6497,-65.5221 -6.8535,-5.246 -6.9543,-5.3561 -9.737,-10.5633 -10.3912,-19.4476 -27.1058,-36.9745 -58.5352,-61.3829 -21.8877,-16.9968 -37.7372,-27.8469 -51.7064,-35.3965 -13.7304,-7.4209 -24.2084,-14.8496 -38.8038,-27.5135 -9.1123,-7.9062 -33.3501,-32.3254 -43.3987,-43.7243 -25.1619,-28.5444 -32.4464,-41.1369 -33.2665,-57.5058 -0.5115,-10.216 1.9037,-16.651 9.1247,-24.3123 3.5051,-3.7174 3.7144,-4.0383 1.4417,-2.2075 -5.2537,4.2337 -10.0641,10.061 -12.6096,15.2729 -2.9842,6.111 -4.1468,11.2143 -4.1406,18.1919 0,9.9882 2.2943,16.4371 9.4998,26.7911 2.1424,3.0772 5.3591,7.8814 7.1481,10.6765 8.3139,12.9863 18.8601,25.6331 33.8989,40.6486 10.3897,10.3741 15.1272,14.659 34.4617,31.1581 26.1617,22.328 39.7339,31.2186 62.0991,40.675 6.3544,2.6865 9.2549,4.3034 14.5924,8.134 11.9538,8.579 19.8383,14.966 27.0329,21.8971 11.1524,10.7431 16.5193,17.9687 23.2023,31.2325 2.0308,4.0337 4.5499,8.2813 5.5963,9.4393 1.0465,1.1596 4.7127,3.8493 8.145,5.9808 10.9803,6.8117 19.846,13.5708 41.1462,31.3659 6.1358,5.1266 12.9584,10.7973 15.1597,12.6018 2.2029,1.8045 3.6834,3.3531 3.2927,3.44 -0.8433,0.1891 -15.4915,-4.8817 -22.5,-7.7884 -15.2202,-6.3095 -32.8402,-18.2354 -53.049,-35.9034 -12.532,-10.957 -32.6168,-31.1813 -45.9922,-46.31 -1.341,-1.5177 -3.0648,-2.2913 -11.1571,-5.0073 -14.8589,-4.9871 -23.0674,-8.6797 -30.8992,-13.8994 -13.2994,-8.8642 -31.6293,-28.4529 -40.5044,-43.284 -4.0446,-6.7605 -5.2491,-8.0565 -14.1149,-15.1674 -16.4541,-13.2034 -29.1784,-27.2438 -49.9407,-55.1077 -9.8223,-13.1831 -16.0046,-18.8415 -26.1462,-23.9293 -10.7865,-5.4119 -25.0533,-6.8459 -34.7748,-3.4958 -4.0166,1.3859 -5.6351,2.2633 -9.2487,5.0227 -3.4074,2.6013 -3.2958,2.6044 1.6371,0.031 4.8631,-2.5315 8.6379,-3.7593 13.8808,-4.5142 3.7934,-0.5473 5.046,-0.507 8.5681,0.279 11.1865,2.4943 21.2056,10.3277 28.0917,21.9606 14.2653,24.0952 32.589,44.0793 49.9097,54.4317 10.199,6.0955 11.047,6.9978 17.9672,19.1268 6.2661,10.9803 9.537,15.2713 18.5811,24.3712 8.9324,8.9882 14.135,13.3304 23.7898,19.8522 11.1555,7.5373 21.1173,12.7383 33.1223,17.2929 6.0552,2.2959 6.5528,2.6043 9.4673,5.8567 26.5787,29.6622 58.4979,56.5494 85.5107,72.0315 7.8535,4.5004 13.2405,6.928 26.3338,11.8593 28.2049,10.6268 34.1687,13.8436 46.1271,24.8766 4.336,4.0027 7.2381,6.2381 8.8968,6.8567 10.0424,3.7438 12.7011,4.8925 16.6015,7.1791 5.8102,3.4058 13.8001,11.312 18.3485,18.1547 3.7469,5.6398 8.4162,14.6048 11.0206,21.1576 1.6215,4.0849 5.4366,18.1253 5.4366,20.0135 0,1.2805 0.1907,1.2417 3.7609,-0.7767 z m -71.6765,-4.0554 c 7.3713,-1.6448 12.7568,-5.5266 15.262,-10.9973 3.5376,-7.731 -0.7023,-18.9036 -10.6796,-28.1414 -7.7775,-7.2024 -15.1426,-11.9182 -33.9795,-21.7652 -7.0504,-3.6865 -16.7704,-9.058 -21.6025,-11.9368 -30.0651,-17.9222 -86.12,-55.1991 -109.0556,-72.5229 -18.7811,-14.1878 -25.6796,-18.609 -33.0138,-21.1623 -5.3281,-1.8556 -7.1993,-1.961 -9.5323,-0.5379 -3.3253,2.0277 -3.6958,6.9187 -1.1007,14.5505 10.4299,30.662 54.0581,80.7345 99.8938,114.6505 15.5798,11.5275 34.5066,23.4224 45.6295,28.6777 4.7623,2.2494 15.107,5.1235 27.3833,7.6085 14.7117,2.978 22.6923,3.3857 30.7954,1.5766 z m 111.9112,-70.1573 c 4.0244,-16.003 5.4754,-29.4482 5.0506,-46.8263 -0.4325,-17.7393 -1.9564,-28.6498 -6.4908,-46.4852 -2.7362,-10.7648 -5.8878,-20.5034 -10.0005,-30.8992 -22.1172,-55.9169 -71.2084,-115.8318 -125.5626,-153.2435 -33.1331,-22.807 -90.7118,-48.3409 -132.8579,-58.9181 -17.2541,-4.3298 -40.0022,-7.9093 -48.3393,-7.6054 -2.5827,0.093 -3.2121,0 9.785,1.5983 16.2154,2.006 31.493,5.6723 42.3787,10.171 33.3672,13.7924 89.3398,43.3135 116.765,61.5861 19.8491,13.225 41.2284,31.4433 66.2042,56.4191 30.276,30.2729 49.4554,55.5665 63.685,83.9838 11.2609,22.4876 16.851,39.996 20.5561,64.3687 1.7208,11.3322 2.3951,33.0339 1.3719,44.2467 -0.6743,7.3993 -2.7485,20.1515 -4.1515,25.5292 -0.4542,1.744 -0.8107,3.3439 -0.7921,3.5547 0.078,0.8402 1.144,-2.4897 2.3982,-7.4799 z"
       id="path160" /></g></svg>
